<svg width="50" height="50" viewBox="0 0 50 50" fill="none" xmlns="http://www.w3.org/2000/svg">
<path d="M25 49.5969C38.5844 49.5969 49.5968 38.5845 49.5968 25.0001C49.5968 11.4157 38.5844 0.40332 25 0.40332C11.4156 0.40332 0.403229 11.4157 0.403229 25.0001C0.403229 38.5845 11.4156 49.5969 25 49.5969Z" fill="white"/>
<path d="M17.4194 19.6772C18.1452 19.6772 18.871 19.6772 19.5161 19.6772C20 19.6772 20.2419 19.5159 20.2419 18.9514C20.2419 17.7417 20.2419 16.6127 20.2419 15.403C20.3226 13.5482 20.8065 11.8547 22.2581 10.5643C23.2258 9.75788 24.4355 9.35465 25.6452 9.274C27.7419 9.19336 29.9194 9.19336 32.0161 9.19336C32.3387 9.19336 32.5 9.35465 32.5 9.67723C32.5 11.1288 32.5 12.5805 32.5 13.9514C32.5 14.4353 32.1774 14.4353 31.8548 14.5159C30.8871 14.5159 29.8387 14.5159 28.871 14.5159C27.8226 14.5159 27.3387 14.9998 27.3387 16.0482C27.3387 17.1772 27.3387 18.3869 27.3387 19.5966C28.629 19.5966 29.7581 19.5966 30.9677 19.5966C31.129 19.5966 31.2903 19.5966 31.4516 19.5966C32.0161 19.5159 32.1774 19.7579 32.0968 20.3224C31.9355 21.6934 31.7742 23.0643 31.6129 24.4353C31.6129 24.8385 31.371 24.9192 31.0484 24.9192C29.8387 24.9192 28.629 24.9192 27.3387 24.9192C27.3387 25.1611 27.2581 25.403 27.2581 25.645C27.2581 30.403 27.2581 35.0805 27.2581 39.8385C27.2581 40.645 27.2581 40.645 26.4516 40.645C24.5968 40.645 22.6613 40.645 20.8065 40.645C20.6452 40.645 20.4032 40.645 20.1613 40.645C20.1613 40.403 20.1613 40.1611 20.1613 39.9192C20.1613 35.1611 20.1613 30.4837 20.1613 25.7256C20.1613 24.9192 20.1613 24.9192 19.3548 24.9192C18.871 24.9192 18.3065 24.9192 17.8226 24.9192C17.6613 24.9192 17.4194 24.6772 17.4194 24.5159C17.4194 22.9837 17.4194 21.4514 17.4194 19.6772Z" fill="#606060"/>
</svg>