<svg width="50" height="50" viewBox="0 0 50 50" fill="none" xmlns="http://www.w3.org/2000/svg">
<path d="M25 49.5969C38.5844 49.5969 49.5968 38.5845 49.5968 25.0001C49.5968 11.4157 38.5844 0.40332 25 0.40332C11.4156 0.40332 0.403225 11.4157 0.403225 25.0001C0.403225 38.5845 11.4156 49.5969 25 49.5969Z" fill="white"/>
<path d="M25 40.7259C23.4677 40.7259 21.9355 40.7259 20.4839 40.7259C19.0323 40.7259 17.5 40.7259 16.129 40.3227C12.6613 39.5163 10.4839 37.2582 9.67742 33.7905C9.43548 32.5808 9.35484 31.3711 9.35484 30.2421C9.35484 26.7743 9.35484 23.3066 9.35484 19.8389C9.35484 18.3872 9.43548 16.9356 9.83871 15.5647C10.8065 12.3389 12.9839 10.4034 16.2097 9.67756C17.4194 9.43563 18.629 9.35498 19.7581 9.35498C23.2258 9.35498 26.6935 9.35498 30.2419 9.35498C31.6129 9.35498 32.9839 9.43563 34.3548 9.83885C37.6613 10.8066 39.6774 12.984 40.4032 16.2905C40.7258 17.6614 40.7258 19.113 40.7258 20.5647C40.7258 23.5485 40.7258 26.5324 40.7258 29.5969C40.7258 31.0485 40.7258 32.5808 40.3226 34.0324C39.5161 37.5808 37.2581 39.6776 33.7097 40.484C32.3387 40.8066 30.9677 40.8066 29.5161 40.8066C28.0645 40.7259 26.5323 40.7259 25 40.7259ZM25 12.0163C25 12.0163 25 12.0969 25 12.0163C23.7097 12.0969 22.5 12.0163 21.2097 12.0969C19.7581 12.0969 18.3065 12.0969 16.8548 12.3389C14.5968 12.8227 13.0645 14.113 12.4194 16.3711C12.1774 17.3389 12.0968 18.3872 12.0968 19.4356C12.0968 22.6614 12.0161 25.8872 12.0968 29.113C12.0968 30.4034 12.0968 31.7743 12.3387 33.0647C12.8226 35.3227 14.1129 36.855 16.371 37.5001C17.3387 37.7421 18.3065 37.8227 19.3548 37.8227C23.1452 37.8227 26.8548 37.8227 30.6452 37.8227C31.4516 37.8227 32.2581 37.7421 33.0645 37.5808C35.4032 37.1776 36.8548 35.8066 37.5 33.5485C37.7419 32.5808 37.8226 31.5324 37.8226 30.484C37.8226 26.7743 37.8226 23.1453 37.8226 19.4356C37.8226 18.4679 37.7419 17.5808 37.5806 16.613C37.1774 15.0001 36.371 13.7905 34.9194 12.984C33.871 12.4195 32.7419 12.1776 31.5323 12.1776C29.3548 12.0969 27.1774 12.0969 25 12.0163Z" fill="#606060"/>
<path d="M25 16.9355C29.5161 16.9355 33.0645 20.5646 33.0645 25.0807C33.0645 29.5162 29.4355 33.1452 24.9194 33.1452C20.4839 33.1452 16.8548 29.4355 16.9355 25.0001C16.9355 20.4839 20.5645 16.9355 25 16.9355ZM25 19.7581C22.0968 19.7581 19.7581 22.0968 19.7581 25.0001C19.7581 27.9033 22.0968 30.242 25 30.242C27.9032 30.242 30.2419 27.9033 30.2419 25.0001C30.2419 22.0968 27.9032 19.7581 25 19.7581Z" fill="#606060"/>
<path d="M33.3871 18.4681C32.3387 18.4681 31.5323 17.6616 31.4516 16.6132C31.4516 15.5648 32.2581 14.6777 33.3065 14.6777C34.3548 14.6777 35.2419 15.4842 35.2419 16.5326C35.3226 17.581 34.4355 18.4681 33.3871 18.4681Z" fill="#606060"/>
</svg>