<svg width="174" height="37" viewBox="0 0 174 37" fill="none" xmlns="http://www.w3.org/2000/svg">
<path d="M70.4 2.3C71.4 1.8 72.5 1.4 73.6 1.1C77.6 0.0999979 81.9 0.499997 85.8 2.7C89.6 4.9 92.2 8.5 93.2 12.5C94.2 16.5 93.8 20.8 91.6 24.7C91.2 25.4 90.8 26 90.3 26.5L89.8 25.8C90.2 25.3 90.5 24.8 90.9 24.2C93 20.6 93.4 16.4 92.5 12.7C91.5 8.9 89.1 5.6 85.4 3.5C81.8 1.4 77.6 0.999997 73.9 1.9C72.9 2.2 72 2.5 71.1 3L70.4 2.3ZM63.8 8.6C64.8 6.9 66 5.5 67.4 4.3L67.9 5C66.6 6.1 65.4 7.5 64.5 9.1C62.4 12.7 62 16.9 62.9 20.6C63.9 24.4 66.3 27.7 70 29.8C73.6 31.9 77.8 32.3 81.5 31.4C83.6 30.9 85.5 29.9 87.2 28.5L87.7 29.2C85.9 30.7 83.9 31.7 81.7 32.3C77.7 33.4 73.4 32.9 69.5 30.7C65.7 28.5 63.1 24.9 62.1 20.9C61.1 16.8 61.6 12.4 63.8 8.6Z" fill="#144372"/>
<path d="M157 23.3V10H160.3V15.1H170.4V10H173.6V23.3H170.4V17.7H160.3V23.3H157Z" fill="#111111"/>
<path d="M148.5 12.4H139.8V20.7H148.5V17.9L151.8 18.6V20.2C151.8 21.4 151.6 22.2 151.1 22.7C150.6 23.1 149.7 23.4 148.3 23.4H140C138.7 23.4 137.8 23.2 137.3 22.7C136.8 22.3 136.6 21.4 136.6 20.2V13.2C136.6 12 136.8 11.2 137.3 10.7C137.8 10.3 138.7 10 140 10H148.3C149.7 10 150.6 10.2 151.1 10.7C151.6 11.1 151.8 12 151.8 13.2V14.5L148.5 15V12.4Z" fill="#111111"/>
<path d="M117.8 23.3V10H132V12.4H121V15.2H127.4V17.5H121V20.8H132.2V23.3H117.8Z" fill="#111111"/>
<path d="M53.6 12.3H46.2V16H53.6C54.2 16 54.5 15.9 54.8 15.8C55 15.6 55.1 15.4 55.1 15V13.5C55.1 13.1 55 12.8 54.8 12.7C54.6 12.4 54.2 12.3 53.6 12.3ZM43.1 23.3V10H55C56.1 10 56.9 10.2 57.4 10.6C57.9 11 58.1 11.7 58.1 12.6V15.7C58.1 16.6 57.9 17.3 57.4 17.6C56.9 18 56.1 18.2 55 18.2H53.2L59.5 23.2H54.9L49.3 18.2H46.3V23.2H43.1V23.3Z" fill="#111111"/>
<path d="M25.4 20.7H36.1V12.4H25.4V20.7ZM22.2 13.1C22.2 11.9 22.4 11.1 22.9 10.6C23.4 10.2 24.3 9.89999 25.6 9.89999H35.9C37.3 9.89999 38.2 10.1 38.6 10.6C39.1 11 39.3 11.9 39.3 13.1V20.1C39.3 21.3 39.1 22.1 38.6 22.6C38.1 23 37.2 23.3 35.9 23.3H25.7C24.3 23.3 23.4 23.1 23 22.6C22.5 22.2 22.3 21.3 22.3 20.1V13.1H22.2Z" fill="#111111"/>
<path d="M11.7 10V23.3H7.9V10H0.5V7.10001H19.2V10H11.7Z" fill="#111111"/>
<path d="M107.2 12.4V23.3H103.9V12.4H97.5V10H113.6V12.4H107.2Z" fill="#111111"/>
<path d="M148.5 12.4H139.8V20.7H148.5V17.9L151.8 18.6V20.2C151.8 21.4 151.6 22.2 151.1 22.7C150.6 23.1 149.7 23.4 148.3 23.4H140C138.7 23.4 137.8 23.2 137.3 22.7C136.8 22.3 136.6 21.4 136.6 20.2V13.2C136.6 12 136.8 11.2 137.3 10.7C137.8 10.3 138.7 10 140 10H148.3C149.7 10 150.6 10.2 151.1 10.7C151.6 11.1 151.8 12 151.8 13.2V14.5L148.5 15V12.4Z" fill="#111111"/>
<path d="M117.8 23.3V10H132V12.4H121V15.2H127.4V17.5H121V20.8H132.2V23.3H117.8Z" fill="#111111"/>
<path d="M157 23.3V10H160.3V15.1H170.4V10H173.6V23.3H170.4V17.7H160.3V23.3H157Z" fill="#111111"/>
<path d="M107.2 12.4V23.3H103.9V12.4H97.5V10H113.6V12.4H107.2Z" fill="#111111"/>
<path fill-rule="evenodd" clip-rule="evenodd" d="M144.2 30.8V31.8H146.2H146.4V31.6V31V30.8H146.2H144.2ZM165.4 32.4L163 29.8H164.5L166.1 31.5L167.6 29.8H169L166.6 32.4V34.3H165.4V32.4ZM158.8 30.8V34.3H157.6V30.8H155.6V29.8H160.7V30.8H158.8ZM152.5 34.4H151.3V29.9H152.5V34.4ZM146.5 32.7L148.3 34.3H146.7L145 32.7H144.1V34.3H143V29.8H146.5C146.8 29.8 147.1 29.8 147.3 30C147.5 30.2 147.6 30.5 147.6 30.8V31.7C147.6 32 147.5 32.3 147.3 32.4C147.1 32.7 146.8 32.7 146.5 32.7ZM135.3 33.4H138V29.9H139.2V33.3C139.2 33.6 139.2 34 138.9 34.2C138.7 34.4 138.3 34.5 138 34.5H135.4C135.1 34.5 134.7 34.5 134.5 34.2C134.3 34 134.2 33.6 134.2 33.3V29.9H135.4V33.4H135.3ZM129.3 30.8H126.8V33.3H129.3V32.3L130.5 32.5V33.1C130.5 33.4 130.5 33.8 130.2 34C130 34.2 129.6 34.3 129.3 34.3H126.9C126.6 34.3 126.2 34.3 126 34C125.8 33.8 125.7 33.4 125.7 33.1V31C125.7 30.7 125.7 30.3 126 30.1C126.2 29.9 126.6 29.8 126.9 29.8H129.3C129.6 29.8 130 29.8 130.2 30.1C130.4 30.3 130.5 30.7 130.5 31V31.6L129.3 31.8V30.8ZM118.8 30.8V31.5H120.8V32.5H118.8V33.4H122.2V34.4H117.6V29.9H122.2V30.9H118.8V30.8ZM112.7 30.8H110.2V31.5H112.7C113 31.5 113.4 31.5 113.6 31.8C113.8 32 113.9 32.4 113.9 32.7V33.2C113.9 33.5 113.9 33.9 113.6 34.1C113.4 34.3 113 34.4 112.7 34.4H110.2C109.9 34.4 109.5 34.4 109.3 34.1C109.1 33.9 109 33.5 109 33.2V32.9L110.1 32.7V33.4H112.9V32.6H110.4C110.1 32.6 109.7 32.6 109.5 32.3C109.3 32.1 109.2 31.7 109.2 31.4V31C109.2 30.7 109.2 30.3 109.5 30.1C109.7 29.9 110.1 29.8 110.4 29.8H112.7C113 29.8 113.4 29.8 113.6 30.1C113.8 30.3 113.9 30.7 113.9 30.9V31.2L112.8 31.4V30.8H112.7ZM172.7 35.6V28.1H171.3V27.4H173.8V36.2H171.3V35.5H172.7V35.6ZM104.9 28.1V35.6H106.3V36.3H103.8V27.5H106.3V28.2H104.9V28.1Z" fill="#144372"/>
<path d="M86.2 18.5C85.8 20.3 84.9 22 83.7 23.2C82 24.9 79.7 25.9 77.1 25.9C74.5 25.9 72.2 24.9 70.5 23.2C69.2 21.9 68.3 20.3 68 18.5H68.5C68.9 20.2 69.7 21.7 70.9 22.9C72.5 24.5 74.7 25.5 77.1 25.5C79.5 25.5 81.7 24.5 83.3 22.9C84.5 21.7 85.3 20.2 85.7 18.5H86.2ZM77.1 7.39999C79.7 7.39999 82 8.39999 83.7 10.1C85.3 11.7 86.3 13.8 86.4 16.2H85.9C85.8 14 84.8 12 83.3 10.5C81.7 8.89999 79.5 7.89999 77.1 7.89999C74.7 7.89999 72.5 8.89999 70.9 10.5C69.4 12 68.5 14 68.3 16.2H67.8C67.9 13.8 68.9 11.7 70.5 10.1C72.2 8.39999 74.6 7.39999 77.1 7.39999Z" fill="#144372"/>
<path d="M69.5 9.80001C70 9.30001 70.5 8.80001 71.1 8.40001C73.2 6.90001 75.9 6.20001 78.7 6.60001C81.5 7.10001 83.8 8.60001 85.3 10.7C86.8 12.8 87.5 15.5 87.1 18.3C87 18.8 86.9 19.2 86.8 19.7L86.3 19.4C86.4 19 86.5 18.6 86.6 18.2C87 15.6 86.4 13 84.9 11C83.5 9.00001 81.2 7.50001 78.6 7.10001C76 6.70001 73.4 7.30001 71.4 8.80001C70.9 9.20001 70.4 9.60001 70 10.1L69.5 9.80001ZM67 15C67.2 13.8 67.6 12.6 68.2 11.6L68.7 11.9C68.2 12.9 67.8 13.9 67.6 15.1C67.2 17.7 67.8 20.3 69.3 22.3C70.7 24.3 73 25.8 75.6 26.2C78.2 26.6 80.8 26 82.8 24.5C83.9 23.7 84.8 22.7 85.5 21.5L86 21.8C85.3 23.1 84.3 24.2 83.1 25C81 26.5 78.3 27.2 75.5 26.8C72.7 26.3 70.4 24.8 68.9 22.7C67.3 20.5 66.6 17.8 67 15Z" fill="#144372"/>
<path d="M77.1 13.2C78 13.2 78.7 13.9 78.7 14.9C78.7 15.6 78.2 16.3 77.6 16.5L78.7 20.1H75.4L76.5 16.5C75.8 16.3 75.4 15.7 75.4 14.9C75.5 14 76.2 13.2 77.1 13.2Z" fill="#144372"/>
<path fill-rule="evenodd" clip-rule="evenodd" d="M77.1 13.2C78 13.2 78.7 13.9 78.7 14.9C78.7 15.6 78.2 16.3 77.6 16.5L78.7 20.1H75.4L76.5 16.5C75.8 16.3 75.4 15.7 75.4 14.9C75.5 14 76.2 13.2 77.1 13.2Z" fill="#144372"/>
<path fill-rule="evenodd" clip-rule="evenodd" d="M77.1 4.29999C83.9 4.29999 89.4 9.79999 89.4 16.6C89.4 23.4 83.9 28.9 77.1 28.9C70.3 28.9 64.8 23.4 64.8 16.6C64.8 9.79999 70.3 4.29999 77.1 4.29999ZM77.1 2.79999C84.8 2.79999 91 8.99999 91 16.6C91 24.3 84.8 30.5 77.1 30.5C69.4 30.5 63.2 24.3 63.2 16.6C63.3 8.99999 69.5 2.79999 77.1 2.79999Z" fill="#144372"/>
</svg>