<svg width="47" height="37" viewBox="0 0 47 37" fill="none" xmlns="http://www.w3.org/2000/svg">
<path d="M28.8702 31.9299C27.8392 35.3981 25.777 37.0853 22.6838 36.9916C19.9655 36.8978 17.8096 34.9294 17.1534 31.9299C16.8722 31.9299 16.591 31.9299 16.3098 31.9299C14.0602 31.9299 11.9043 31.9299 9.65466 31.9299C8.34237 31.9299 7.40503 31.18 7.31129 29.9615C7.31129 29.6803 7.40503 29.1179 7.5925 29.0241C10.1233 27.0557 11.3419 24.4311 11.998 21.4316C12.373 19.6507 12.5604 17.8697 12.6542 15.995C12.7479 10.9334 15.185 7.37146 19.8717 5.68424C19.9655 5.68424 20.1529 5.5905 20.2467 5.49677C20.2467 4.74689 20.2467 3.90328 20.2467 3.15341C20.2467 1.65365 21.184 0.716309 22.6838 0.716309C22.965 0.716309 23.2462 0.716309 23.4336 0.716309C24.8396 0.716309 25.6833 1.55992 25.777 2.8722C25.777 3.71581 25.4958 4.65316 25.8707 5.3093C26.2457 5.87171 27.2767 5.96544 27.9329 6.43411C31.4948 8.49627 33.3695 11.6832 33.3695 15.8076C33.3695 19.0883 33.8382 22.369 35.3379 25.3685C36.0878 26.7745 36.9314 27.9931 38.2437 29.0241C38.5249 29.2116 38.7124 29.774 38.6186 30.1489C38.4312 31.3675 37.4938 32.1174 36.1815 32.1174C34.0256 32.1174 31.8697 32.1174 29.7138 32.1174C29.5264 31.9299 29.2452 31.9299 28.8702 31.9299ZM8.81104 30.1489C9.27972 30.2427 9.65466 30.4302 10.1233 30.4302C18.1845 30.4302 26.1519 30.4302 34.2131 30.4302C34.8692 30.4302 35.5254 30.4302 36.0878 30.4302C36.4627 30.4302 36.7439 30.1489 36.9314 30.1489C35.9003 28.6492 34.7755 27.4306 34.0256 26.0246C32.2447 22.7439 31.776 19.0883 31.776 15.4326C31.6823 10.9334 28.4016 7.18399 24.0898 6.62158C19.5905 6.05918 15.3725 8.77748 14.3414 13.2767C13.9664 14.964 14.0602 16.7449 13.8727 18.5259C13.4978 22.8377 12.2792 26.8682 8.81104 30.1489ZM18.7469 32.0236C19.0281 34.0858 20.9028 35.5856 23.0587 35.5856C25.1209 35.5856 26.9955 33.9921 27.2767 32.0236C24.4647 32.0236 21.5589 32.0236 18.7469 32.0236ZM24.2772 5.0281C24.2772 4.27822 24.2772 3.62208 24.2772 2.96594C24.2772 2.3098 23.7148 2.12233 23.1524 2.12233C22.59 2.12233 21.8401 2.02859 21.7464 2.8722C21.6527 3.62208 21.7464 4.27822 21.7464 5.0281C22.59 5.0281 23.4336 5.0281 24.2772 5.0281Z" fill="#fff"/>
<path d="M-1.21499e-07 18.7133C0.0937344 14.3078 1.78096 10.7459 5.06166 8.02758C5.4366 7.74637 5.90527 7.5589 6.28021 7.93384C6.65515 8.40251 6.46768 8.77745 5.99901 9.15239C5.81154 9.33986 5.62407 9.43359 5.4366 9.62106C3.74938 11.1208 2.53083 12.9955 1.96842 15.1514C0.937345 18.807 1.49975 22.2752 3.65565 25.4622C3.65565 25.5559 3.74938 25.5559 3.74938 25.6497C4.03058 26.0246 4.12432 26.4933 3.65565 26.7745C3.18697 27.1494 2.81204 26.8682 2.53083 26.3995C1.31228 24.7123 0.468672 22.8376 0.187469 20.6817C0.0937344 20.0256 -1.21499e-07 19.2757 -1.21499e-07 18.7133Z" fill="#fff"/>
<path d="M46.0236 18.5259C46.0236 21.4317 45.18 23.9625 43.5866 26.3059C43.3053 26.7745 42.9304 27.1495 42.368 26.7745C41.8056 26.3996 42.0868 25.9309 42.368 25.4623C46.0237 20.1194 45.0863 13.4642 40.2121 9.24619C39.8372 8.87125 39.3685 8.49631 39.8372 8.02764C40.3058 7.46523 40.7745 7.84017 41.2432 8.21511C44.2427 10.6522 46.0236 14.4953 46.0236 18.5259Z" fill="#fff"/>
<path d="M42.6492 18.5259C42.6492 20.5881 41.9931 22.5565 40.8682 24.2437C40.587 24.7124 40.2121 25.0873 39.6497 24.6187C39.181 24.2437 39.3685 23.7751 39.6497 23.4001C42.1805 19.557 41.6181 14.964 38.15 11.8708C37.775 11.4958 37.3063 11.1209 37.775 10.5585C38.2437 10.0898 38.7124 10.371 39.0873 10.746C41.3369 12.7144 42.6492 15.6202 42.6492 18.5259Z" fill="#fff"/>
<path d="M3.37444 18.2446C3.46818 15.4326 4.59299 12.9018 6.93635 10.8396C7.31129 10.4647 7.77997 10.1835 8.24864 10.6521C8.71731 11.1208 8.34237 11.5895 7.8737 11.8707C4.49926 15.0576 3.84312 19.5569 6.46768 23.4938C6.74889 23.9624 6.93635 24.3374 6.46768 24.7123C5.90527 25.0872 5.62407 24.7123 5.24913 24.3374C4.03058 22.5564 3.46818 20.6817 3.37444 18.2446Z" fill="#fff"/>
<path d="M6.84262 18.4321C6.93635 16.4637 7.5925 14.7764 9.18598 13.4642C9.56092 13.0892 10.0296 12.9018 10.4045 13.3704C10.7795 13.8391 10.4983 14.214 10.1233 14.4952C7.96743 16.5574 7.68623 18.9008 9.18598 21.4316C9.46719 21.9003 9.56092 22.2752 9.09225 22.5564C8.62358 22.8376 8.24864 22.6501 7.96743 22.1815C7.21756 21.1504 6.84262 19.9318 6.84262 18.4321Z" fill="#fff"/>
<path d="M39.181 18.4322C39.181 19.8382 38.8061 21.1505 38.0562 22.2753C37.775 22.744 37.4001 23.0252 36.8377 22.6503C36.369 22.2753 36.5565 21.9004 36.8377 21.4317C38.3374 18.9946 37.9625 16.4638 35.9003 14.5891C35.5254 14.2142 35.2442 13.8392 35.6191 13.3705C35.9941 12.9019 36.4627 13.1831 36.8377 13.4643C38.4312 14.7766 39.181 16.4638 39.181 18.4322Z" fill="#fff"/>
</svg>