<svg width="50" height="50" viewBox="0 0 50 50" fill="none" xmlns="http://www.w3.org/2000/svg">
<path d="M25 49.5969C38.5844 49.5969 49.5968 38.5845 49.5968 25.0001C49.5968 11.4157 38.5844 0.40332 25 0.40332C11.4156 0.40332 0.403229 11.4157 0.403229 25.0001C0.403229 38.5845 11.4156 49.5969 25 49.5969Z" fill="white"/>
<path d="M10.3226 13.9517C20.1613 13.9517 29.8387 13.9517 39.6774 13.9517C34.7581 18.2259 29.9194 22.4194 25 26.6936C20.1613 22.4194 15.2419 18.2259 10.3226 13.9517Z" fill="#606060"/>
<path d="M10.3226 34.5161C13.9516 31.3709 17.5 28.387 21.0484 25.3225C22.4194 26.4515 23.7097 27.4999 25 28.5483C26.2903 27.4999 27.5806 26.3709 28.9516 25.3225C32.5 28.387 36.0484 31.4515 39.6774 34.5161C29.8387 34.5161 20.1613 34.5161 10.3226 34.5161Z" fill="#606060"/>
<path d="M9.35484 14.9194C12.9839 18.0646 16.5323 21.1291 20.1613 24.1936C16.6129 27.2581 12.9839 30.3227 9.35484 33.4678C9.35484 27.2581 9.35484 21.1291 9.35484 14.9194Z" fill="#606060"/>
<path d="M29.9193 24.1936C33.5484 21.0485 37.0968 17.9839 40.6452 14.9194C40.6452 21.1291 40.6452 27.2581 40.6452 33.4678C37.0968 30.4033 33.5484 27.3388 29.9193 24.1936Z" fill="#606060"/>
</svg>