<svg width="34" height="42" viewBox="0 0 34 42" fill="none" xmlns="http://www.w3.org/2000/svg">
<path d="M0.0924508 7.75127C6.82084 7.50532 13.018 6.43951 17.002 0.45459C20.8973 6.35752 27.0945 7.50532 34 7.66929C34 8.07921 34 8.40716 34 8.81708C34 13.9822 33.9115 19.2292 34 24.3943C34 27.0998 33.1147 29.4774 31.5211 31.691C28.0684 36.3641 23.0221 39.1516 17.5331 41.3652C17.179 41.5292 16.7364 41.4472 16.3822 41.2832C11.513 39.3976 7.17497 36.938 3.72224 33.2487C1.33189 30.6251 -0.084612 27.5917 0.00391942 23.9843C0.180982 18.9013 0.00391942 13.9002 0.00391942 8.81708C0.0924509 8.48914 0.0924508 8.07921 0.0924508 7.75127ZM1.95161 9.39098C1.95161 9.8009 1.95161 10.2108 1.95161 10.5388C1.95161 15.048 2.04014 19.5571 1.95161 24.0663C1.86308 26.9358 2.92546 29.3954 4.78462 31.609C7.17497 34.4785 10.2736 36.5281 13.7263 38.1678C17.7987 40.0534 16.2937 40.0534 20.2776 38.2498C20.6318 38.0858 20.8973 37.9218 21.2515 37.7579C24.6157 35.8722 27.8028 33.7406 30.0161 30.7071C31.4326 28.8215 32.2294 26.7718 32.1408 24.3943C32.0523 19.7211 32.1408 15.1299 32.1408 10.4568C32.1408 10.1288 32.1408 9.71892 32.0523 9.39098C26.2092 9.06304 20.9859 7.75127 17.002 3.57003C13.018 7.34135 10.6277 8.24318 1.95161 9.39098Z" fill="#101010"/>
<path d="M22.9336 20.295C22.9336 22.9185 23.0221 25.5421 22.8451 28.0836C22.8451 28.4935 22.3139 29.0674 21.8712 29.3134C19.3923 31.0351 14.6116 30.9531 12.1328 29.3134C11.4245 28.8215 11.0704 28.2476 11.0704 27.4277C11.0704 25.0501 11.0704 22.6726 11.0704 20.213C15.0543 20.295 18.9497 20.295 22.9336 20.295ZM17.7988 27.2637C17.7988 27.0998 17.8873 27.0178 17.8873 26.9358C17.7988 26.034 17.4446 25.2141 18.1529 24.3123C18.33 24.1483 17.9758 23.2465 17.6217 23.0825C17.2676 22.9185 16.4708 23.0005 16.2052 23.2465C15.9396 23.4924 15.8511 24.3943 16.1167 24.5582C16.6479 25.0501 16.4708 25.5421 16.3823 26.034C16.2937 26.3619 16.2937 26.7718 16.2052 27.1818C16.7364 27.2637 17.2676 27.2637 17.7988 27.2637Z" fill="#101010"/>
<path d="M20.9859 19.6391C20.4547 19.6391 19.9235 19.6391 19.3923 19.6391C19.3923 18.9012 19.3923 18.1634 19.3923 17.5075C19.3923 16.0318 18.4185 14.884 17.0905 14.9659C15.7625 14.9659 14.7887 16.0318 14.7887 17.5075C14.7887 18.2454 14.7887 18.9012 14.7887 19.7211C14.1689 19.7211 13.6378 19.7211 12.841 19.7211C13.018 18.3273 13.1066 16.8516 13.4607 15.5398C13.9034 14.1461 15.674 13.2443 17.3561 13.4082C19.3038 13.6542 20.7203 14.802 20.8973 16.3597C21.0744 17.3435 20.9859 18.4913 20.9859 19.6391Z" fill="#101010"/>
</svg>