<svg width="50" height="50" viewBox="0 0 50 50" fill="none" xmlns="http://www.w3.org/2000/svg"><path d="M0.403229 25.0001C0.403229 11.6936 11.0484 0.72586 24.4355 0.403279C38.1452 0.0806987 49.2742 10.8871 49.5968 24.1936C50 38.0646 39.0323 49.2742 25.5645 49.5968C11.7742 49.9194 0.403229 38.7904 0.403229 25.0001ZM33.2258 40.9678C31.6129 38.1452 30 35.4033 28.3871 32.5807C27.2581 33.1452 26.129 33.0646 25.0806 32.5807C24.2742 32.1775 23.629 31.6936 22.9839 31.0484C21.5323 29.5968 20.4839 27.9033 19.8387 25.9678C19.3548 24.7581 19.1129 23.5484 19.1129 22.2581C19.1129 21.4517 19.2742 20.5646 19.7581 19.9194C20 19.5968 20.3226 19.3549 20.5645 19.0323C18.9516 16.2904 17.3387 13.4678 15.7258 10.7259C15.2419 11.0484 14.7581 11.371 14.2742 11.613C12.5806 12.6613 11.7742 14.1936 11.8548 16.2097C11.8548 17.9033 12.1774 19.5162 12.5806 21.1291C13.2258 23.4678 14.1129 25.7259 15.2419 27.9839C16.9355 31.371 19.0323 34.5162 21.6129 37.3388C22.9839 38.871 24.5968 40.3226 26.371 41.371C27.3387 41.9355 28.3065 42.3388 29.4355 42.2581C30.8871 42.2581 32.0161 41.613 33.2258 40.9678ZM22.1774 19.113C22.2581 19.113 22.5 19.0323 22.6613 18.9517C23.4677 18.5484 24.1936 18.0646 24.9194 17.6613C25.5645 17.2581 25.7258 16.6936 25.4032 16.0484C23.9516 13.4678 22.4194 10.8871 20.9677 8.30651C20.6452 7.66134 20 7.50005 19.3548 7.90328C18.629 8.30651 17.8226 8.79038 17.0968 9.1936C16.4516 9.51618 16.2903 10.1613 16.6936 10.8065C17.3387 11.9355 17.9839 12.9839 18.629 14.113C19.5161 15.6452 20.4032 17.0968 21.2097 18.6291C21.371 18.871 21.6936 19.113 22.1774 19.113ZM32.4194 29.1936C32.2581 29.2742 32.0161 29.2742 31.8548 29.4355C31.129 29.8388 30.4032 30.3226 29.6774 30.7259C28.9516 31.1291 28.7903 31.6936 29.1936 32.4194C30 33.871 30.8871 35.3226 31.6936 36.7742C32.3387 37.9033 32.9839 39.0323 33.629 40.0807C33.9516 40.7259 34.5968 40.8871 35.2419 40.4839C35.9677 40.0807 36.6936 39.5968 37.4194 39.1936C38.0645 38.7904 38.2258 38.2259 37.9032 37.5001C37.4194 36.6936 36.9355 35.8065 36.4516 35.0001C35.4839 33.2259 34.4355 31.5323 33.4677 29.7581C33.1452 29.4355 32.8226 29.2742 32.4194 29.1936Z" fill="white"/></svg>