<svg width="50" height="50" viewBox="0 0 50 50" fill="none" xmlns="http://www.w3.org/2000/svg">
<path d="M25 49.5969C38.5844 49.5969 49.5968 38.5845 49.5968 25.0001C49.5968 11.4157 38.5844 0.40332 25 0.40332C11.4156 0.40332 0.403229 11.4157 0.403229 25.0001C0.403229 38.5845 11.4156 49.5969 25 49.5969Z" fill="white"/>
<path d="M25 42.6613C24.4355 41.8548 23.871 41.129 23.3871 40.4032C21.129 37.1774 19.0322 33.871 17.3387 30.3226C16.2097 27.9839 15.2419 25.5645 14.6774 23.0645C14.2742 21.4516 14.0322 19.8387 14.1129 18.2258C14.1935 15.6451 15 13.3064 16.6935 11.371C18.3064 9.43547 20.4032 8.22579 22.9032 7.66128C28.871 6.4516 34.4355 10.1613 35.8871 15.7258C36.2097 17.0968 36.2903 18.4677 36.129 19.8387C35.8871 22.6613 35 25.4032 33.9516 27.9839C32.5806 31.2903 30.8064 34.4355 28.871 37.5C27.7419 39.1935 26.6129 40.8871 25.4032 42.5C25.0806 42.5 25.0806 42.5806 25 42.6613ZM25 12.5806C21.6935 12.5806 19.0322 15.2419 19.0322 18.5484C19.0322 21.8548 21.6935 24.5161 25 24.5161C28.3064 24.5161 30.9677 21.8548 30.9677 18.5484C30.9677 15.2419 28.3064 12.5806 25 12.5806Z" fill="#606060"/>
</svg>