<svg width="50" height="50" viewBox="0 0 50 51" fill="none" xmlns="http://www.w3.org/2000/svg">
<path d="M29.0017 2.40843C28.5639 2.41142 28.1279 2.46674 27.7032 2.57323L18.6639 4.86205C17.8654 5.04664 17.168 5.53032 16.7152 6.21353C16.2625 6.89674 16.0889 7.7275 16.2301 8.53484C16.3113 8.95163 16.4768 9.34743 16.7165 9.69792C16.9561 10.0484 17.265 10.3462 17.6239 10.573C17.9829 10.7998 18.3845 10.9508 18.8039 11.0167C19.2234 11.0827 19.6519 11.0621 20.0631 10.9564L26.1499 9.4168C26.2559 9.38926 26.3665 9.38468 26.4744 9.40336C26.5823 9.42204 26.6849 9.46356 26.7755 9.52513L28.1122 10.3979C27.8425 10.9189 27.7266 11.5058 27.778 12.0901C27.8168 12.5122 27.9407 12.922 28.142 13.2949C28.3434 13.6678 28.6182 13.996 28.9499 14.2599L34.0387 18.2822C34.0622 18.3007 34.0866 18.318 34.1119 18.334C34.8171 18.889 35.5691 19.3817 36.3595 19.8065C38.6867 21.0587 41.2882 21.7141 43.9309 21.7139C44.782 21.714 45.6316 21.6451 46.4715 21.5079L47.7838 21.2973C47.986 21.2619 48.1662 21.1484 48.2853 20.9813C48.4045 20.8141 48.4531 20.6068 48.4206 20.4041C48.3882 20.2014 48.2772 20.0196 48.1118 19.8981C47.9464 19.7766 47.7397 19.725 47.5366 19.7546V19.7516L46.2213 19.9637C43.0942 20.4689 39.8877 19.9294 37.0981 18.4286C36.3635 18.0332 35.6659 17.5726 35.0137 17.0523C34.9898 17.0336 34.9648 17.0163 34.9389 17.0004L29.9203 13.0331C29.7537 12.9015 29.6157 12.7373 29.5147 12.5505C29.4136 12.3638 29.3517 12.1584 29.3327 11.9469C29.3137 11.7354 29.3381 11.5222 29.4042 11.3205C29.4703 11.1187 29.5769 10.9325 29.7174 10.7733C30.0091 10.476 30.4021 10.2995 30.8182 10.2792C31.2342 10.2588 31.6426 10.396 31.9619 10.6634L36.1184 13.9502C36.1986 14.0166 36.2912 14.0663 36.3909 14.0964C36.4905 14.1265 36.5951 14.1364 36.6987 14.1255C36.8022 14.1146 36.9025 14.0831 36.9937 14.0329C37.0848 13.9827 37.1651 13.9148 37.2296 13.8331C37.2942 13.7515 37.3418 13.6578 37.3696 13.5575C37.3975 13.4572 37.405 13.3523 37.3917 13.2491C37.3785 13.1458 37.3447 13.0463 37.2925 12.9563C37.2402 12.8663 37.1705 12.7876 37.0874 12.7249L32.9309 9.43968C32.4048 9.01406 31.7584 8.76421 31.0828 8.72534C30.4072 8.68647 29.7365 8.86053 29.165 9.22301L27.6285 8.21745C27.3566 8.0389 27.0506 7.91887 26.7298 7.86502C26.4091 7.81117 26.0806 7.82466 25.7654 7.90465L19.6801 9.43968C19.4745 9.49178 19.2604 9.50145 19.0509 9.46811C18.8414 9.43476 18.6409 9.35911 18.4615 9.24575C18.2822 9.13239 18.1279 8.98371 18.0079 8.80875C17.8879 8.6338 17.8048 8.43625 17.7636 8.22814C17.7064 7.81472 17.8066 7.39489 18.0442 7.05181C18.2819 6.70873 18.6398 6.46743 19.0469 6.37572L28.0816 4.08843C29.0323 3.85212 30.0368 3.97775 30.8999 4.4409L34.2233 6.22923C34.4058 6.32737 34.6198 6.34898 34.8183 6.28932C35.0167 6.22966 35.1834 6.0936 35.2815 5.91109C35.3796 5.72857 35.4012 5.51455 35.3416 5.3161C35.2819 5.11765 35.1459 4.95103 34.9634 4.85289L31.64 3.06456C30.8294 2.62828 29.9222 2.40266 29.0017 2.40843ZM37.3361 6.23686C37.1629 6.23827 36.9952 6.29714 36.8591 6.40423C36.723 6.51131 36.6263 6.66056 36.5843 6.82852C36.5422 6.99649 36.5571 7.17368 36.6266 7.33227C36.6961 7.49086 36.8163 7.62188 36.9684 7.70476L40.4519 9.58769C42.3773 10.6321 44.5329 11.1791 46.7233 11.1792C47.0551 11.1792 47.3874 11.1666 47.7212 11.141C47.9268 11.1239 48.1172 11.0261 48.2509 10.8692C48.3847 10.7122 48.4509 10.5086 48.4352 10.303C48.4195 10.0973 48.3231 9.90624 48.1671 9.77138C48.011 9.63652 47.808 9.56885 47.6022 9.58312C45.3797 9.75161 43.1557 9.27587 41.1966 8.21288L37.7115 6.32994C37.5961 6.26796 37.467 6.23596 37.3361 6.23686ZM25.0039 11.7834C22.906 11.7814 20.8343 12.2491 18.9408 13.1522C17.0472 14.0554 15.3799 15.3711 14.0613 17.0028C12.7426 18.6344 11.8061 20.5407 11.3203 22.5816C10.8346 24.6225 10.812 26.7462 11.2542 28.797C11.3027 28.9943 11.4261 29.1649 11.5982 29.2728C11.7703 29.3806 11.9777 29.4172 12.1764 29.3747C12.375 29.3323 12.5493 29.2141 12.6623 29.0453C12.7753 28.8765 12.8181 28.6703 12.7817 28.4704C12.3881 26.6474 12.4078 24.7594 12.8394 22.9449C13.271 21.1305 14.1035 19.4358 15.2757 17.9852C16.448 16.5346 17.9302 15.3649 19.6136 14.5621C21.297 13.7593 23.1389 13.3438 25.0039 13.3459L25.4556 13.3688C25.5585 13.3744 25.6616 13.3592 25.7585 13.3241C25.8554 13.289 25.9443 13.2347 26.0198 13.1645C26.0953 13.0943 26.1558 13.0096 26.1978 12.9154C26.2399 12.8213 26.2625 12.7196 26.2643 12.6166C26.268 12.514 26.2514 12.4116 26.2155 12.3154C26.1796 12.2192 26.1251 12.1311 26.0551 12.056C25.9851 11.9808 25.9009 11.9203 25.8075 11.8777C25.7141 11.8351 25.6131 11.8114 25.5105 11.8078L25.0039 11.7834ZM24.8727 15.65C23.2758 15.6674 21.7053 16.0603 20.2884 16.7971C18.8714 17.5339 17.6478 18.5938 16.7164 19.8911C15.785 21.1885 15.1721 22.6868 14.9271 24.265C14.6821 25.8431 14.812 27.4568 15.3063 28.9754C15.8005 30.494 16.6452 31.875 17.7721 33.0067C18.899 34.1384 20.2765 34.9889 21.793 35.4896C23.3096 35.9902 24.9227 36.1269 26.5018 35.8886C28.081 35.6503 29.5819 35.0436 30.8832 34.1177C30.9682 34.0588 31.0407 33.9836 31.0965 33.8965C31.1522 33.8093 31.1901 33.7119 31.2079 33.61C31.2258 33.5081 31.2232 33.4037 31.2003 33.3028C31.1774 33.2018 31.1347 33.1065 31.0747 33.0222C31.0147 32.9379 30.9385 32.8664 30.8506 32.8118C30.7628 32.7572 30.6649 32.7206 30.5628 32.7042C30.4606 32.6877 30.3562 32.6917 30.2556 32.7159C30.155 32.7401 30.0603 32.784 29.9768 32.8451C28.2165 34.0972 26.0501 34.6423 23.9069 34.3722C21.7637 34.1022 19.8002 33.0368 18.4056 31.3872C17.0109 29.7376 16.287 27.6242 16.3772 25.466C16.4674 23.3077 17.3653 21.2621 18.8927 19.7347C20.4201 18.2072 22.4657 17.3094 24.624 17.2192C26.7822 17.129 28.8956 17.8529 30.5452 19.2476C32.1948 20.6422 33.2602 22.6057 33.5302 24.7489C33.8003 26.8921 33.2552 29.0585 32.0031 30.8188C31.883 30.9875 31.8348 31.1971 31.8691 31.4014C31.9034 31.6057 32.0175 31.788 32.1863 31.9082C32.355 32.0284 32.5646 32.0766 32.7689 32.0423C32.9732 32.008 33.1555 31.8939 33.2757 31.7251C34.3641 30.1952 35.008 28.394 35.1362 26.5208C35.2644 24.6477 34.8719 22.7755 34.0021 21.1116C33.1323 19.4477 31.8192 18.0568 30.2079 17.0929C28.5967 16.129 26.7502 15.6296 24.8727 15.65ZM22.6602 19.5959C22.453 19.5959 22.2543 19.6782 22.1078 19.8248C21.9613 19.9713 21.8789 20.17 21.8789 20.3772C21.8789 20.5844 21.9613 20.7831 22.1078 20.9296C22.2543 21.0761 22.453 21.1584 22.6602 21.1584H26.5664V23.5022C26.5664 23.7094 26.6487 23.9081 26.7953 24.0546C26.9418 24.2011 27.1405 24.2834 27.3477 24.2834H29.6914V27.4084H27.3477C27.1405 27.4084 26.9418 27.4907 26.7953 27.6373C26.6487 27.7838 26.5664 27.9825 26.5664 28.1897V30.5334H23.4414V28.1897C23.4414 27.9825 23.3591 27.7838 23.2126 27.6373C23.0661 27.4907 22.8674 27.4084 22.6602 27.4084H20.3164V24.2834H22.6602C22.8674 24.2834 23.0661 24.2011 23.2126 24.0546C23.3591 23.9081 23.4414 23.7094 23.4414 23.5022C23.4414 23.295 23.3591 23.0963 23.2126 22.9498C23.0661 22.8032 22.8674 22.7209 22.6602 22.7209H19.5352C19.328 22.7209 19.1293 22.8032 18.9828 22.9498C18.8363 23.0963 18.7539 23.295 18.7539 23.5022V28.1897C18.7539 28.3969 18.8363 28.5956 18.9828 28.7421C19.1293 28.8886 19.328 28.9709 19.5352 28.9709H21.8789V31.3147C21.8789 31.5219 21.9613 31.7206 22.1078 31.8671C22.2543 32.0136 22.453 32.0959 22.6602 32.0959H27.3477C27.5549 32.0959 27.7536 32.0136 27.9001 31.8671C28.0466 31.7206 28.1289 31.5219 28.1289 31.3147V28.9709H30.4727C30.6799 28.9709 30.8786 28.8886 31.0251 28.7421C31.1716 28.5956 31.2539 28.3969 31.2539 28.1897V23.5022C31.2539 23.295 31.1716 23.0963 31.0251 22.9498C30.8786 22.8032 30.6799 22.7209 30.4727 22.7209H28.1289V20.3772C28.1289 20.17 28.0466 19.9713 27.9001 19.8248C27.7536 19.6782 27.5549 19.5959 27.3477 19.5959H22.6602ZM37.9587 22.28C37.8449 22.2845 37.7335 22.3139 37.6323 22.3661C37.5311 22.4182 37.4425 22.4919 37.3727 22.5819C37.303 22.6718 37.2537 22.776 37.2284 22.887C37.2031 22.998 37.2024 23.1132 37.2262 23.2245C37.6191 25.0473 37.5989 26.9349 37.167 28.7489C36.7351 30.5629 35.9025 32.2572 34.7304 33.7073C33.5582 35.1575 32.0762 36.3269 30.3931 37.1296C28.7101 37.9322 26.8686 38.3478 25.0039 38.3459L24.5553 38.3215C24.4527 38.3176 24.3504 38.334 24.2541 38.3696C24.1578 38.4053 24.0695 38.4595 23.9942 38.5293C23.9189 38.5991 23.8581 38.683 23.8152 38.7763C23.7723 38.8696 23.7482 38.9704 23.7443 39.073C23.7404 39.1756 23.7568 39.278 23.7924 39.3742C23.8281 39.4705 23.8823 39.5588 23.9521 39.6342C24.0219 39.7095 24.1058 39.7703 24.1991 39.8132C24.2924 39.856 24.3932 39.8801 24.4958 39.884L25.0039 39.9084C27.1014 39.9101 29.1727 39.4423 31.0658 38.5392C32.9589 37.6361 34.6259 36.3207 35.9444 34.6895C37.263 33.0582 38.1996 31.1525 38.6857 29.1122C39.1718 27.0718 39.195 24.9485 38.7536 22.8979C38.7153 22.7177 38.6144 22.5569 38.469 22.4438C38.3235 22.3307 38.1428 22.2727 37.9587 22.28ZM5.97318 29.9841C5.15691 29.9894 4.34225 30.0573 3.53635 30.1871L2.2241 30.3976C2.02188 30.433 1.84171 30.5465 1.72253 30.7136C1.60336 30.8808 1.55476 31.0881 1.58723 31.2908C1.61971 31.4935 1.73067 31.6753 1.8961 31.7968C2.06153 31.9184 2.26815 31.9699 2.47129 31.9403L3.7866 31.7282C6.91374 31.2254 10.1194 31.7665 12.9083 33.2678C13.6435 33.6631 14.3416 34.1237 14.9942 34.6441C15.019 34.6631 15.0449 34.6805 15.072 34.696L20.0876 38.6587C20.2542 38.7904 20.3922 38.9546 20.4932 39.1413C20.5943 39.3281 20.6561 39.5335 20.6751 39.745C20.6941 39.9565 20.6698 40.1696 20.6037 40.3714C20.5376 40.5732 20.431 40.7593 20.2905 40.9186C19.999 41.2162 19.6059 41.3929 19.1897 41.4133C18.7736 41.4336 18.3651 41.2962 18.0459 41.0284L13.8894 37.7402C13.8089 37.6765 13.7166 37.6294 13.6178 37.6015C13.5191 37.5735 13.4157 37.5653 13.3138 37.5773C13.2119 37.5892 13.1133 37.6212 13.0237 37.6712C12.9341 37.7213 12.8552 37.7885 12.7916 37.8691C12.7279 37.9496 12.6808 38.0419 12.6529 38.1407C12.6249 38.2395 12.6167 38.3428 12.6287 38.4447C12.6406 38.5467 12.6726 38.6453 12.7226 38.7349C12.7727 38.8245 12.84 38.9033 12.9205 38.967L17.077 42.2537C17.6653 42.723 18.3951 42.9795 19.1476 42.9816C19.7507 42.9802 20.3403 42.8031 20.8444 42.4719L22.3794 43.4744C22.6513 43.653 22.9573 43.773 23.2781 43.8268C23.5988 43.8807 23.9273 43.8672 24.2425 43.7872L30.3277 42.2522C30.5335 42.2001 30.7477 42.1905 30.9573 42.2239C31.1669 42.2574 31.3675 42.3331 31.5468 42.4467C31.7261 42.5602 31.8805 42.709 32.0004 42.8842C32.1203 43.0593 32.2033 43.257 32.2442 43.4653C32.301 43.8784 32.2007 44.2979 31.9631 44.6406C31.7255 44.9834 31.3678 45.2244 30.961 45.3161L21.9262 47.605C20.9758 47.8413 19.9714 47.7162 19.1079 47.254L15.7876 45.4642C15.6973 45.4156 15.5982 45.3852 15.4961 45.3749C15.394 45.3646 15.2909 45.3745 15.1926 45.4041C15.0944 45.4336 15.0029 45.4822 14.9234 45.5471C14.8439 45.612 14.778 45.6919 14.7294 45.7823C14.6808 45.8727 14.6505 45.9717 14.6402 46.0738C14.6299 46.1759 14.6398 46.279 14.6693 46.3773C14.6989 46.4756 14.7475 46.567 14.8124 46.6465C14.8773 46.726 14.9572 46.7919 15.0476 46.8405L18.3679 48.6288C19.167 49.0589 20.0605 49.2838 20.968 49.2834C21.4184 49.2835 21.8672 49.2291 22.3047 49.1217L31.344 46.8313C32.1413 46.6468 32.8377 46.164 33.2903 45.4821C33.7428 44.8003 33.9173 43.9711 33.7777 43.1647C33.6967 42.7469 33.5307 42.3502 33.29 41.9993C33.0493 41.6484 32.739 41.3506 32.3785 41.1246C32.0209 40.8969 31.6204 40.7452 31.2017 40.6788C30.7831 40.6124 30.3552 40.6327 29.9447 40.7385L23.858 42.2781C23.7522 42.3046 23.642 42.3087 23.5345 42.29C23.427 42.2714 23.3246 42.2304 23.2339 42.1698L21.8957 41.297C22.1648 40.7764 22.2807 40.1901 22.2299 39.6063C22.1912 39.1842 22.0674 38.7744 21.866 38.4015C21.6646 38.0286 21.3897 37.7003 21.058 37.4365L15.9692 33.4128C15.945 33.3948 15.921 33.3765 15.896 33.3609C15.1915 32.8057 14.4399 32.313 13.6499 31.8884C11.2909 30.6206 8.6512 29.9658 5.97318 29.9841ZM3.24033 40.5157C2.92312 40.5165 2.60604 40.5287 2.28971 40.5524C2.1869 40.5595 2.08651 40.5869 1.99434 40.633C1.90216 40.6791 1.82002 40.7429 1.75264 40.8209C1.68525 40.8989 1.63396 40.9894 1.60172 41.0873C1.56948 41.1852 1.55692 41.2885 1.56477 41.3912C1.57262 41.494 1.60072 41.5942 1.64746 41.686C1.6942 41.7779 1.75865 41.8596 1.83709 41.9264C1.91554 41.9933 2.00643 42.0439 2.10454 42.0755C2.20265 42.107 2.30603 42.1188 2.40873 42.1103C4.63131 41.9411 6.85549 42.4169 8.81437 43.4805L12.2995 45.3634C12.4812 45.456 12.692 45.4739 12.8868 45.4132C13.0815 45.3525 13.2448 45.2181 13.3418 45.0386C13.4388 44.8592 13.4618 44.6489 13.4059 44.4527C13.35 44.2565 13.2196 44.09 13.0426 43.9886H13.0395L9.55594 42.1057C7.61716 41.055 5.44548 40.5083 3.24033 40.5157Z" fill="#fff"/>
</svg>